<mxfile host="app.diagrams.net" modified="2023-04-21T19:36:16.181Z" agent="Mozilla/5.0 (Windows NT 10.0; Win64; x64) AppleWebKit/537.36 (KHTML, like Gecko) Chrome/112.0.0.0 Safari/537.36" etag="zIJa_0IFlS3ZP3tsNAqf" version="21.1.4" type="device">
  <diagram name="Page-1" id="Z1-QGdAYKWwTbCQObGXu">
    <mxGraphModel dx="1500" dy="773" grid="1" gridSize="10" guides="1" tooltips="1" connect="1" arrows="1" fold="1" page="1" pageScale="1" pageWidth="850" pageHeight="1100" math="0" shadow="0">
      <root>
        <mxCell id="0" />
        <mxCell id="1" parent="0" />
        <mxCell id="sYCxPB3jGfWzXi5Lz4w9-1" value="World" style="swimlane;fontStyle=1;align=center;verticalAlign=top;childLayout=stackLayout;horizontal=1;startSize=26;horizontalStack=0;resizeParent=1;resizeParentMax=0;resizeLast=0;collapsible=1;marginBottom=0;whiteSpace=wrap;html=1;" parent="1" vertex="1">
          <mxGeometry x="345" y="50" width="160" height="250" as="geometry" />
        </mxCell>
        <mxCell id="sYCxPB3jGfWzXi5Lz4w9-2" value="- time: int = 0&lt;br&gt;- newCreatures: int = 0&lt;br&gt;- deadCreatures: int = 0&lt;br&gt;- newFood: int = 0&lt;br&gt;- rottenFood: int = 0&lt;br&gt;- creatures: Creature[] = []&lt;br&gt;- food: Food[] = []" style="text;strokeColor=none;fillColor=none;align=left;verticalAlign=top;spacingLeft=4;spacingRight=4;overflow=hidden;rotatable=0;points=[[0,0.5],[1,0.5]];portConstraint=eastwest;whiteSpace=wrap;html=1;" parent="sYCxPB3jGfWzXi5Lz4w9-1" vertex="1">
          <mxGeometry y="26" width="160" height="114" as="geometry" />
        </mxCell>
        <mxCell id="sYCxPB3jGfWzXi5Lz4w9-3" value="" style="line;strokeWidth=1;fillColor=none;align=left;verticalAlign=middle;spacingTop=-1;spacingLeft=3;spacingRight=3;rotatable=0;labelPosition=right;points=[];portConstraint=eastwest;strokeColor=inherit;" parent="sYCxPB3jGfWzXi5Lz4w9-1" vertex="1">
          <mxGeometry y="140" width="160" height="8" as="geometry" />
        </mxCell>
        <mxCell id="sYCxPB3jGfWzXi5Lz4w9-4" value="+ display(): void&lt;br&gt;+ displayCreatures(): void&lt;br&gt;+ step(): void&lt;br&gt;+ spawnCreature(): void&lt;br&gt;+ spawnFood(): void&lt;br&gt;- getBounds(): int[]" style="text;strokeColor=none;fillColor=none;align=left;verticalAlign=top;spacingLeft=4;spacingRight=4;overflow=hidden;rotatable=0;points=[[0,0.5],[1,0.5]];portConstraint=eastwest;whiteSpace=wrap;html=1;" parent="sYCxPB3jGfWzXi5Lz4w9-1" vertex="1">
          <mxGeometry y="148" width="160" height="102" as="geometry" />
        </mxCell>
        <mxCell id="4f9Z_jPDL4cX7xvsKeAM-3" style="edgeStyle=orthogonalEdgeStyle;rounded=0;orthogonalLoop=1;jettySize=auto;html=1;entryX=0;entryY=0.5;entryDx=0;entryDy=0;endArrow=blockThin;endFill=0;" parent="1" source="sYCxPB3jGfWzXi5Lz4w9-5" target="sYCxPB3jGfWzXi5Lz4w9-19" edge="1">
          <mxGeometry relative="1" as="geometry" />
        </mxCell>
        <mxCell id="sYCxPB3jGfWzXi5Lz4w9-5" value="Creature" style="swimlane;fontStyle=1;align=center;verticalAlign=top;childLayout=stackLayout;horizontal=1;startSize=26;horizontalStack=0;resizeParent=1;resizeParentMax=0;resizeLast=0;collapsible=1;marginBottom=0;whiteSpace=wrap;html=1;" parent="1" vertex="1">
          <mxGeometry x="80" y="430" width="230" height="190" as="geometry" />
        </mxCell>
        <mxCell id="sYCxPB3jGfWzXi5Lz4w9-6" value="+ name: String = &quot;example creature&quot;&lt;br&gt;- hunger: int = 0&lt;br&gt;- health: int = 10" style="text;strokeColor=none;fillColor=none;align=left;verticalAlign=top;spacingLeft=4;spacingRight=4;overflow=hidden;rotatable=0;points=[[0,0.5],[1,0.5]];portConstraint=eastwest;whiteSpace=wrap;html=1;" parent="sYCxPB3jGfWzXi5Lz4w9-5" vertex="1">
          <mxGeometry y="26" width="230" height="54" as="geometry" />
        </mxCell>
        <mxCell id="sYCxPB3jGfWzXi5Lz4w9-7" value="" style="line;strokeWidth=1;fillColor=none;align=left;verticalAlign=middle;spacingTop=-1;spacingLeft=3;spacingRight=3;rotatable=0;labelPosition=right;points=[];portConstraint=eastwest;strokeColor=inherit;" parent="sYCxPB3jGfWzXi5Lz4w9-5" vertex="1">
          <mxGeometry y="80" width="230" height="8" as="geometry" />
        </mxCell>
        <mxCell id="sYCxPB3jGfWzXi5Lz4w9-8" value="+ display(): void&lt;br&gt;+ idle(int hungerDiff): void&lt;br&gt;+ dead(): boolean&lt;br&gt;+ eat(Food food): void&lt;br&gt;+ move(int xOff, int yOff): void&lt;br&gt;+ reproduce(): Creature" style="text;strokeColor=none;fillColor=none;align=left;verticalAlign=top;spacingLeft=4;spacingRight=4;overflow=hidden;rotatable=0;points=[[0,0.5],[1,0.5]];portConstraint=eastwest;whiteSpace=wrap;html=1;" parent="sYCxPB3jGfWzXi5Lz4w9-5" vertex="1">
          <mxGeometry y="88" width="230" height="102" as="geometry" />
        </mxCell>
        <mxCell id="4f9Z_jPDL4cX7xvsKeAM-4" style="edgeStyle=orthogonalEdgeStyle;rounded=0;orthogonalLoop=1;jettySize=auto;html=1;entryX=1;entryY=0.5;entryDx=0;entryDy=0;endArrow=block;endFill=0;" parent="1" source="sYCxPB3jGfWzXi5Lz4w9-12" target="sYCxPB3jGfWzXi5Lz4w9-19" edge="1">
          <mxGeometry relative="1" as="geometry" />
        </mxCell>
        <mxCell id="sYCxPB3jGfWzXi5Lz4w9-12" value="Food" style="swimlane;fontStyle=1;align=center;verticalAlign=top;childLayout=stackLayout;horizontal=1;startSize=26;horizontalStack=0;resizeParent=1;resizeParentMax=0;resizeLast=0;collapsible=1;marginBottom=0;whiteSpace=wrap;html=1;" parent="1" vertex="1">
          <mxGeometry x="570" y="430" width="190" height="140" as="geometry" />
        </mxCell>
        <mxCell id="sYCxPB3jGfWzXi5Lz4w9-13" value="- value: int = 5&lt;br&gt;- life: int&amp;nbsp; = 5&lt;br&gt;+ name: String = &quot;example food&quot;" style="text;strokeColor=none;fillColor=none;align=left;verticalAlign=top;spacingLeft=4;spacingRight=4;overflow=hidden;rotatable=0;points=[[0,0.5],[1,0.5]];portConstraint=eastwest;whiteSpace=wrap;html=1;" parent="sYCxPB3jGfWzXi5Lz4w9-12" vertex="1">
          <mxGeometry y="26" width="190" height="54" as="geometry" />
        </mxCell>
        <mxCell id="4f9Z_jPDL4cX7xvsKeAM-20" value="" style="line;strokeWidth=1;fillColor=none;align=left;verticalAlign=middle;spacingTop=-1;spacingLeft=3;spacingRight=3;rotatable=0;labelPosition=right;points=[];portConstraint=eastwest;strokeColor=inherit;" parent="sYCxPB3jGfWzXi5Lz4w9-12" vertex="1">
          <mxGeometry y="80" width="190" height="10" as="geometry" />
        </mxCell>
        <mxCell id="4f9Z_jPDL4cX7xvsKeAM-19" value="+ getValue(): int&lt;br&gt;+ update(): void&lt;br&gt;+ rotten(): boolean" style="text;strokeColor=none;fillColor=none;align=left;verticalAlign=top;spacingLeft=4;spacingRight=4;overflow=hidden;rotatable=0;points=[[0,0.5],[1,0.5]];portConstraint=eastwest;whiteSpace=wrap;html=1;" parent="sYCxPB3jGfWzXi5Lz4w9-12" vertex="1">
          <mxGeometry y="90" width="190" height="50" as="geometry" />
        </mxCell>
        <mxCell id="sYCxPB3jGfWzXi5Lz4w9-18" value="Position" style="swimlane;fontStyle=1;align=center;verticalAlign=top;childLayout=stackLayout;horizontal=1;startSize=26;horizontalStack=0;resizeParent=1;resizeParentMax=0;resizeLast=0;collapsible=1;marginBottom=0;whiteSpace=wrap;html=1;" parent="1" vertex="1">
          <mxGeometry x="345" y="710" width="160" height="106" as="geometry" />
        </mxCell>
        <mxCell id="sYCxPB3jGfWzXi5Lz4w9-19" value="- x: int = 0&lt;br&gt;- y: int = 0" style="text;strokeColor=none;fillColor=none;align=left;verticalAlign=top;spacingLeft=4;spacingRight=4;overflow=hidden;rotatable=0;points=[[0,0.5],[1,0.5]];portConstraint=eastwest;whiteSpace=wrap;html=1;" parent="sYCxPB3jGfWzXi5Lz4w9-18" vertex="1">
          <mxGeometry y="26" width="160" height="44" as="geometry" />
        </mxCell>
        <mxCell id="4f9Z_jPDL4cX7xvsKeAM-22" value="" style="line;strokeWidth=1;fillColor=none;align=left;verticalAlign=middle;spacingTop=-1;spacingLeft=3;spacingRight=3;rotatable=0;labelPosition=right;points=[];portConstraint=eastwest;strokeColor=inherit;" parent="sYCxPB3jGfWzXi5Lz4w9-18" vertex="1">
          <mxGeometry y="70" width="160" height="10" as="geometry" />
        </mxCell>
        <mxCell id="4f9Z_jPDL4cX7xvsKeAM-21" value="+ getPosition(): int[]" style="text;strokeColor=none;fillColor=none;align=left;verticalAlign=top;spacingLeft=4;spacingRight=4;overflow=hidden;rotatable=0;points=[[0,0.5],[1,0.5]];portConstraint=eastwest;whiteSpace=wrap;html=1;" parent="sYCxPB3jGfWzXi5Lz4w9-18" vertex="1">
          <mxGeometry y="80" width="160" height="26" as="geometry" />
        </mxCell>
        <mxCell id="4f9Z_jPDL4cX7xvsKeAM-6" style="edgeStyle=orthogonalEdgeStyle;rounded=0;orthogonalLoop=1;jettySize=auto;html=1;entryX=0.5;entryY=0;entryDx=0;entryDy=0;exitX=0.341;exitY=1.017;exitDx=0;exitDy=0;exitPerimeter=0;endArrow=open;endFill=0;" parent="1" source="sYCxPB3jGfWzXi5Lz4w9-4" target="sYCxPB3jGfWzXi5Lz4w9-5" edge="1">
          <mxGeometry relative="1" as="geometry">
            <Array as="points">
              <mxPoint x="400" y="360" />
              <mxPoint x="195" y="360" />
            </Array>
          </mxGeometry>
        </mxCell>
        <mxCell id="4f9Z_jPDL4cX7xvsKeAM-10" value="1" style="edgeLabel;html=1;align=center;verticalAlign=middle;resizable=0;points=[];" parent="4f9Z_jPDL4cX7xvsKeAM-6" vertex="1" connectable="0">
          <mxGeometry x="-0.8959" relative="1" as="geometry">
            <mxPoint as="offset" />
          </mxGeometry>
        </mxCell>
        <mxCell id="4f9Z_jPDL4cX7xvsKeAM-12" value="*" style="edgeLabel;html=1;align=center;verticalAlign=middle;resizable=0;points=[];" parent="4f9Z_jPDL4cX7xvsKeAM-6" vertex="1" connectable="0">
          <mxGeometry x="0.8785" y="1" relative="1" as="geometry">
            <mxPoint as="offset" />
          </mxGeometry>
        </mxCell>
        <mxCell id="4f9Z_jPDL4cX7xvsKeAM-7" style="edgeStyle=orthogonalEdgeStyle;rounded=0;orthogonalLoop=1;jettySize=auto;html=1;entryX=0.5;entryY=0;entryDx=0;entryDy=0;endArrow=open;endFill=0;exitX=0.696;exitY=1.03;exitDx=0;exitDy=0;exitPerimeter=0;" parent="1" source="sYCxPB3jGfWzXi5Lz4w9-4" target="sYCxPB3jGfWzXi5Lz4w9-12" edge="1">
          <mxGeometry relative="1" as="geometry">
            <Array as="points">
              <mxPoint x="456" y="359" />
              <mxPoint x="665" y="359" />
            </Array>
            <mxPoint x="460" y="300" as="sourcePoint" />
          </mxGeometry>
        </mxCell>
        <mxCell id="4f9Z_jPDL4cX7xvsKeAM-9" value="1" style="edgeLabel;html=1;align=center;verticalAlign=middle;resizable=0;points=[];" parent="4f9Z_jPDL4cX7xvsKeAM-7" vertex="1" connectable="0">
          <mxGeometry x="-0.9032" relative="1" as="geometry">
            <mxPoint y="4" as="offset" />
          </mxGeometry>
        </mxCell>
        <mxCell id="4f9Z_jPDL4cX7xvsKeAM-11" value="*" style="edgeLabel;html=1;align=center;verticalAlign=middle;resizable=0;points=[];" parent="4f9Z_jPDL4cX7xvsKeAM-7" vertex="1" connectable="0">
          <mxGeometry x="0.8822" y="-3" relative="1" as="geometry">
            <mxPoint as="offset" />
          </mxGeometry>
        </mxCell>
        <mxCell id="4f9Z_jPDL4cX7xvsKeAM-13" style="edgeStyle=orthogonalEdgeStyle;rounded=0;orthogonalLoop=1;jettySize=auto;html=1;dashed=1;endArrow=open;endFill=0;" parent="1" source="sYCxPB3jGfWzXi5Lz4w9-6" edge="1">
          <mxGeometry relative="1" as="geometry">
            <mxPoint x="570" y="470" as="targetPoint" />
            <Array as="points">
              <mxPoint x="570" y="470" />
            </Array>
          </mxGeometry>
        </mxCell>
      </root>
    </mxGraphModel>
  </diagram>
</mxfile>
